<?xml version="1.0"?><svg width="744.09448" height="533.3333333333333" xmlns="http://www.w3.org/2000/svg" xmlns:xlink="http://www.w3.org/1999/xlink">
 <defs>
  <linearGradient y2="758.14929" y1="810.21936" xlink:href="#linearGradient2212" x2="245.75005" x1="180.65712" id="linearGradient4128" gradientUnits="userSpaceOnUse" gradientTransform="matrix(0.164181,0,0,0.279005,370.379,341.0819)"/>
  <linearGradient y2="665.02673" y1="810.21936" xlink:href="#linearGradient2212" x2="157.14334" x1="244.28572" id="linearGradient4131" gradientUnits="userSpaceOnUse" gradientTransform="matrix(0.164181,0,0,0.279005,370.8438,332.0167)"/>
  <linearGradient y2="691.37769" y1="802.69507" xlink:href="#linearGradient2212" x2="256.58017" x1="337.4357" id="linearGradient4134" gradientUnits="userSpaceOnUse" gradientTransform="matrix(0.164181,0,0,0.279005,305.0635,339.2224)"/>
  <linearGradient y2="624.79266" y1="810.21936" xlink:href="#linearGradient2212" x2="203.70448" x1="244.28572" id="linearGradient4138" gradientUnits="userSpaceOnUse" gradientTransform="matrix(0.137094,0,0,0.237759,313.5525,379.6629)"/>
  <linearGradient id="linearGradient2212">
   <stop stop-color="#000000" offset="0" id="stop2214"/>
   <stop stop-color="#000000" stop-opacity="0" offset="1" id="stop2216"/>
  </linearGradient>
  <linearGradient y2="718.16046" y1="810.21936" xlink:href="#linearGradient2212" x2="225.92958" x1="244.28572" id="linearGradient2233" gradientUnits="userSpaceOnUse" gradientTransform="matrix(0.451528,0,0,0.783074,122.3746,-32.89941)"/>
  <linearGradient y2="718.16046" y1="810.21936" xlink:href="#linearGradient2212" x2="225.92958" x1="244.28572" id="linearGradient3991" gradientUnits="userSpaceOnUse" gradientTransform="matrix(0.540741,0,0,0.918919,94.41544,-166.0926)"/>
  <linearGradient y2="728.99078" y1="810.21936" xlink:href="#linearGradient2212" x2="222.39273" x1="244.28572" id="linearGradient3995" gradientUnits="userSpaceOnUse" gradientTransform="matrix(0.540741,0,0,0.918919,311.0668,-189.8248)"/>
  <linearGradient y2="758.14929" y1="810.21936" xlink:href="#linearGradient2212" x2="245.75005" x1="244.28572" id="linearGradient3999" gradientUnits="userSpaceOnUse" gradientTransform="matrix(0.540741,0,0,0.918919,309.5357,-159.9682)"/>
  <linearGradient y2="718.16046" y1="810.21936" xlink:href="#linearGradient2212" x2="225.92958" x1="244.28572" id="linearGradient4029" gradientUnits="userSpaceOnUse" gradientTransform="matrix(0.451528,0,0,0.783074,122.3746,-32.89941)"/>
  <linearGradient y2="718.16046" y1="810.21936" xlink:href="#linearGradient2212" x2="225.92958" x1="244.28572" id="linearGradient4031" gradientUnits="userSpaceOnUse" gradientTransform="matrix(0.540741,0,0,0.918919,94.41544,-166.0926)"/>
  <linearGradient y2="728.99078" y1="810.21936" xlink:href="#linearGradient2212" x2="222.39273" x1="244.28572" id="linearGradient4033" gradientUnits="userSpaceOnUse" gradientTransform="matrix(0.540741,0,0,0.918919,311.0668,-189.8248)"/>
  <linearGradient y2="758.14929" y1="810.21936" xlink:href="#linearGradient2212" x2="245.75005" x1="244.28572" id="linearGradient4035" gradientUnits="userSpaceOnUse" gradientTransform="matrix(0.540741,0,0,0.918919,309.5357,-159.9682)"/>
  <linearGradient y2="758.14929" y1="857.73218" xlink:href="#linearGradient2212" x2="245.75005" x1="101.8843" id="linearGradient1564" gradientUnits="userSpaceOnUse" gradientTransform="matrix(0.631509,0,0,1.073171,344.7216,-554.2534)"/>
  <linearGradient y2="707.90417" y1="810.21936" xlink:href="#linearGradient2212" x2="202.43771" x1="244.28572" id="linearGradient1567" gradientUnits="userSpaceOnUse" gradientTransform="matrix(0.631509,0,0,1.073171,346.5094,-589.122)"/>
  <linearGradient y2="691.37769" y1="859.4787" xlink:href="#linearGradient2212" x2="256.58017" x1="428.02444" id="linearGradient1570" gradientUnits="userSpaceOnUse" gradientTransform="matrix(0.631509,0,0,1.073171,93.49065,-561.4058)"/>
  <linearGradient y2="703.66602" y1="810.21936" xlink:href="#linearGradient2212" x2="213.13815" x1="244.28572" id="linearGradient1574" gradientUnits="userSpaceOnUse" gradientTransform="matrix(0.527321,0,0,0.914521,126.1429,-405.8546)"/>
  <linearGradient y2="-0.243867" y1="2.171955" xlink:href="#linearGradient2212" x2="0.305583" x1="0.470571" id="linearGradient1593"/>
  <linearGradient y2="-0.353443" y1="4.005962" xlink:href="#linearGradient2212" x2="0.499999" x1="1.560188" id="linearGradient1595"/>
  <linearGradient y2="-1.056648" y1="3.021339" xlink:href="#linearGradient2212" x2="0.347082" x1="0.667756" id="linearGradient1597"/>
  <linearGradient y2="0.216998" y1="4.0377" xlink:href="#linearGradient2212" x2="0.819759" x1="-0.511231" id="linearGradient1599"/>
 </defs>
 <g>
  <title>Layer 1</title>
  <g id="layer1">
   <g id="g1581">
    <path fill="#ff0000" fill-rule="evenodd" stroke-width="4" stroke-miterlimit="4" id="path1543" d="m446.425873,201.77066c-13.14209,-1.877457 27.668549,-21.284119 39.618896,-27.065842c37.861603,-18.317871 55.786835,-33.814224 93.526886,-49.98851c23.306396,-9.988434 38.362366,1.254135 62.078613,-8.232384c15.235291,-6.094101 44.414856,11.543831 51.0224,24.758888c7.242859,14.485779 14.008728,33.642014 10.253845,48.661423c-7.294556,29.178268 -10.890747,55.742981 -15.145447,85.52597c-0.924744,6.473358 -1.285889,36.455597 -2.360901,42.905701c-4.828247,28.96933 -4.657166,47.780609 -14.049927,75.95874c-13.095276,39.286072 -60.780273,-14.343048 -89.429871,-21.256165c-8.891479,-2.145477 -38.767273,-11.788849 -75.102386,-36.447784c-14.274506,-9.687439 -34.171539,-22.01236 -56.207153,-34.441895c-2.920319,-50.460938 -1.075043,-73.662308 -1.612518,-74.199814"/>
    <path fill="#ff0000" fill-rule="evenodd" stroke-width="3.800464" stroke-miterlimit="4" id="path1545" d="m323.903046,202.484894c13.259155,-1.798187 -38.376892,-25.351791 -50.433685,-30.889526c-38.198792,-17.544739 -55.872452,-35.828766 -93.465744,-52.349052c-21.770248,-9.566856 -42.01535,-7.722427 -64.342888,-10.974457c-20.717316,-3.017517 -37.259705,15.143242 -43.926094,27.800575c-7.307388,13.874435 -23.055405,35.165115 -24.498085,66.931595c-1.307091,28.780182 0.152279,40.497147 2.786701,69.20401c1.571301,17.122345 4.87941,26.9729 5.963989,45.506622c1.643612,28.086121 -0.658428,59.349731 26.080387,80.592438c30.634781,24.337891 83.673309,-15.961792 112.578003,-23.410767c8.905807,-2.295135 59.569366,-30.586517 68.329529,-36.823792c13.923981,-9.913971 53.718353,-19.773132 61.983154,-33.652222c6.050293,-10.160248 4.660828,0.758453 5.203125,0.243622"/>
    <path fill="#000000" fill-rule="evenodd" stroke="#000000" stroke-width="1.167862" stroke-miterlimit="4" id="path1547" d="m111.330971,99.035805c-15.864952,0.420059 -42.778633,17.903198 -49.027451,30.400902c-7.49371,14.987442 -20.235481,34.105499 -21.714931,68.420288c-1.340401,31.088943 1.855862,47.611084 -0.46534,76.946533c-1.464451,18.508179 7.306473,38.049988 11.692352,48.142334c-1.006142,10.600555 8.242039,66.465118 33.854389,83.447449c23.559097,15.620941 80.470268,-18.65918 110.111992,-26.70575c9.132904,-2.479187 61.088196,-34.976898 70.071716,-41.714539c14.278992,-10.709229 46.785645,-19.195831 61.750732,-26.678345c0.010956,-0.005493 0.025604,-0.030823 0.036438,-0.036499c0.053589,-0.029419 0.132172,-0.075592 0.182526,-0.109467c0.557068,-0.388794 0.936737,-1.046234 1.42334,-1.532837l0,-108.428635c13.597198,-1.94249 -39.35022,-27.411636 -51.714417,-33.393555c-39.172729,-18.95224 -58.198242,-33.868896 -96.750076,-51.714394c-22.325317,-10.334328 -42.322403,-12.22789 -65.071785,-16.678551c-1.431824,-0.28009 -2.887886,-0.404449 -4.379486,-0.364937zm-4.141327,11.53315c-10.082321,2.61644 45.071663,-1.735596 32.24131,-2.353714c-21.82386,-1.05146 29.617401,17.575493 50.693512,26.906326c36.394653,16.112671 31.12236,18.626526 93.136826,42.8909c11.977234,4.68634 55.40921,22.133148 42.572815,23.887009l-2.68219,104.176331c-0.508575,0.48642 -0.905914,1.130371 -1.532806,1.459808c-0.010223,0.005157 -0.026123,0.031525 -0.036499,0.036499c-14.127686,6.755951 -40.999603,11.069305 -54.479614,20.738678c-8.480865,6.083374 -53.961731,40.951965 -62.818192,41.906097c-34.241547,3.688904 -87.738472,45.927307 -109.979332,31.823212c-24.179176,-15.333313 -26.185081,-25.728821 -27.217003,-53.148743c-0.687134,-18.257843 -6.890862,-50.72699 -10.413719,-66.045013c-6.073082,-26.406738 -4.746292,-66.945129 -3.4809,-95.015198c1.396709,-30.982681 16.559917,-31.146759 25.838451,-52.499634c10.654388,-24.519157 13.269188,-24.131912 28.157341,-24.762558z"/>
    <path fill="#000000" fill-rule="evenodd" stroke-width="4" stroke-miterlimit="4" id="path1549" d="m658.493164,107.803291c-1.275818,0.060631 -56.774841,3.734299 -80.081238,13.722733c-37.740051,16.174309 -53.921875,31.665581 -91.783478,49.983482c-11.950409,5.781738 -58.694885,20.653854 -45.552734,22.531281l7.667145,109.323959c0.478729,0.478699 36.126373,34.603394 49.927429,33.916138c10.840057,-0.539795 55.82782,34.117828 64.837769,32.542145c14.823364,-2.592407 100.540405,67.450287 113.635742,28.164215c9.3927,-28.178192 11.803894,-60.78537 16.632141,-89.754669c1.075012,-6.450134 1.990356,-39.029785 2.915039,-45.503143c4.254761,-29.782974 3.610107,-35.933594 10.904602,-65.111862c3.754883,-15.019424 1.114746,-47.5616 -6.128113,-62.047394c-6.142944,-12.285873 -29.561279,-16.470833 -42.974304,-27.766884zm-12.354675,12.117172c15.110718,-0.51252 38.405396,11.535805 43.863953,23.035515c6.463074,13.616089 13.402893,43.255356 10.052307,57.373001c-6.509216,27.426392 -12.006165,40.225403 -15.802856,68.220184c-0.825195,6.084717 -1.933167,31.821564 -2.892456,37.88443c-4.30835,27.230011 -10.313843,53.832886 -18.695313,80.319214c-11.685364,36.927307 -83.179749,-32.296417 -113.371338,-32.296417c-8.161865,-0.000031 -27.653687,-17.100067 -35.401672,-23.221191c-12.315216,-9.729309 -63.123047,-46.87616 -69.410889,-32.68985c-7.157715,16.149078 -20.385132,-1.011536 -22.482971,16.283569l29.127869,-111.466385c-11.727203,-1.764709 33.958038,-24.865875 44.621765,-30.300491c33.785278,-17.218063 51.510132,-24.004745 85.18689,-39.207932c20.797119,-9.38871 33.77771,-6.039528 54.940552,-14.956421c1.009033,-0.42514 4.732056,2.792175 10.26416,1.022774z"/>
    <path fill="#ff0000" fill-rule="evenodd" stroke="#000000" stroke-width="6.423241" stroke-miterlimit="4" id="path1551" d="m331.85556,187.466171c-11.180664,8.286346 -10.928955,23.864349 -13.347015,38.372589c-2.657013,15.942307 0,35.446213 0,51.719589c0,10.455902 3.100433,24.552856 6.673523,31.699066c8.011475,16.022949 37.174408,11.772705 53.38797,15.015381c11.776794,2.355377 47.066803,1.492188 56.724701,-3.336731c15.00708,-7.50354 15.043518,-21.801422 20.020508,-41.709351c3.893005,-15.571991 3.336731,-38.570435 3.336731,-55.056351c0,-12.171219 -7.855988,-31.213226 -15.01535,-38.372589c-12.664154,-12.664139 -53.041229,-5.908951 -70.071716,-8.341873c-7.102448,-1.014648 -28.45636,0.188004 -41.709351,10.010269z"/>
    <path fill="url(#linearGradient1593)" stroke-width="4" stroke-linecap="round" stroke-miterlimit="4" id="path1553" d="m225.769287,297.241852l38.282471,-13.136536l32.310028,-16.184113l20.526611,-5.497986l0.726105,6.714111c0,0 -18.629456,2.147156 -43.517303,14.128906c-24.562943,6.924591 -56.03418,19.493256 -56.03418,19.493256l7.706268,-5.517639z"/>
    <path fill="#af0000" fill-opacity="0.222222" stroke-width="5.5" stroke-miterlimit="4" id="path1555" d="m319.431061,282.291962c33.046967,-18.704315 134.185181,-0.58197 134.185181,-0.58197c0,0 9.958313,10.688995 -12.516815,36.901459c-30.620453,21.260681 -115.828247,-4.470276 -115.828247,-4.470276c0,0 -5.447083,-19.006287 -5.840118,-31.849213z"/>
    <path fill="url(#linearGradient1595)" stroke-width="4" stroke-linecap="round" stroke-miterlimit="4" id="path1557" d="m214.411545,210.110596l26.176971,6.042023l19.02449,4.253876l56.768402,14.111603l0.152161,16.974548l-12.827698,-15.082809l-89.294327,-26.29924z"/>
    <path fill="url(#linearGradient1597)" stroke-width="4" stroke-linecap="round" stroke-miterlimit="4" id="path1559" d="m463.854156,233.356155l17.236389,-3.792648l14.554199,-1.110489l42.463409,-14.498322l-46.338898,19.656754l-36.073242,7.268707l8.158142,-7.524002z"/>
    <path fill="url(#linearGradient1599)" stroke-width="4" stroke-linecap="round" stroke-miterlimit="4" id="path1561" d="m462.06604,268.224457l5.613617,6.936066l17.236328,4.253876l21.006042,8.747253l16.245209,8.033966l-68.259338,-20.447174l8.158142,-7.523987z"/>
   </g>
  </g>
 </g>
</svg>